<svg width="41" height="41" viewBox="0 0 41 41" fill="none" xmlns="http://www.w3.org/2000/svg">
<path fill-rule="evenodd" clip-rule="evenodd" d="M20.5 0C9.17888 0 0 9.17888 0 20.5C0 31.8211 9.17888 41 20.5 41C31.8211 41 41 31.8211 41 20.5C41 9.17888 31.8211 0 20.5 0ZM30.0018 13.9417C29.6943 17.1824 28.3583 25.0493 27.6801 28.6795C27.3931 30.217 26.826 30.7312 26.2793 30.7808C25.0886 30.8901 24.1849 29.9932 23.0318 29.2381C21.2278 28.056 20.2079 27.3197 18.4568 26.1648C16.4325 24.8306 17.7445 24.0977 18.8976 22.9002C19.2 22.5859 24.4445 17.8145 24.547 17.3823C24.559 17.3276 24.5727 17.126 24.4514 17.0201C24.3301 16.9142 24.1541 16.9501 24.0277 16.9791C23.8466 17.0201 20.9647 18.9249 15.3801 22.6935C14.5618 23.2555 13.8204 23.5289 13.1559 23.5152C12.4247 23.4998 11.017 23.1018 9.96983 22.7601C8.68688 22.3433 7.66529 22.1212 7.75413 21.414C7.80025 21.045 8.30763 20.6674 9.27796 20.2813C13.2517 18.5385 17.2368 16.8216 21.2329 15.1307C26.9268 12.763 28.1089 12.3513 28.8811 12.3376C29.848 12.3239 30.0803 13.1217 30.0018 13.9417Z" fill="black"/>
</svg>
